<?xml version="1.0" encoding="utf-8"?>
<svg width="800px" height="800px" viewBox="0 0 24 24" fill="none" xmlns="http://www.w3.org/2000/svg">
<path d="M18 3H6C4.34315 3 3 4.34315 3 6V18C3 19.6569 4.34315 21 6 21H18C19.6569 21 21 19.6569 21 18V6C21 4.34315 19.6569 3 18 3Z" stroke="#4338ca" stroke-width="1.5" stroke-linecap="round" stroke-linejoin="round"/>
<path d="M9 10C10.1046 10 11 9.10457 11 8C11 6.89543 10.1046 6 9 6C7.89543 6 7 6.89543 7 8C7 9.10457 7.89543 10 9 10Z" stroke="#4338ca" stroke-width="1.5" stroke-linecap="round" stroke-linejoin="round"/>
<path d="M15 8H17" stroke="#4338ca" stroke-width="1.5" stroke-linecap="round" stroke-linejoin="round"/>
<path d="M15 12H17" stroke="#4338ca" stroke-width="1.5" stroke-linecap="round" stroke-linejoin="round"/>
<path d="M7 15.01L7.01 14.9989" stroke="#4338ca" stroke-width="1.5" stroke-linecap="round" stroke-linejoin="round"/>
<path d="M11 15.01L11.01 14.9989" stroke="#4338ca" stroke-width="1.5" stroke-linecap="round" stroke-linejoin="round"/>
<path d="M15 15.01L15.01 14.9989" stroke="#4338ca" stroke-width="1.5" stroke-linecap="round" stroke-linejoin="round"/>
</svg>