<?xml version="1.0" encoding="utf-8"?>
<svg width="800px" height="800px" viewBox="0 0 24 24" fill="none" xmlns="http://www.w3.org/2000/svg">
<path d="M9 11V16C9 17.1046 8.10457 18 7 18C5.89543 18 5 17.1046 5 16V12.5C5 10.5 5.5 8.5 7 7C8.5 5.5 11 5 14 5C17 5 19 5.5 20.5 7C22 8.5 22.5 10.5 22.5 12.5V16C22.5 17.1046 21.6046 18 20.5 18C19.3954 18 18.5 17.1046 18.5 16V11" stroke="#4338ca" stroke-width="1.5" stroke-linecap="round" stroke-linejoin="round"/>
<path d="M13.5 5V21.5" stroke="#4338ca" stroke-width="1.5" stroke-linecap="round" stroke-linejoin="round"/>
<path d="M1.5 11H5" stroke="#4338ca" stroke-width="1.5" stroke-linecap="round" stroke-linejoin="round"/>
<path d="M22.5 11H18.5" stroke="#4338ca" stroke-width="1.5" stroke-linecap="round" stroke-linejoin="round"/>
</svg>