<?xml version="1.0" encoding="utf-8"?>
<svg width="800px" height="800px" viewBox="0 0 24 24" fill="none" xmlns="http://www.w3.org/2000/svg">
<path d="M16 4L19 7L22 4V8.5C22 9.88071 20.8807 11 19.5 11H19" stroke="#4338ca" strokeWidth="1.5" strokeLinecap="round" strokeLinejoin="round"/>
<path d="M8 4L5 7L2 4V8.5C2 9.88071 3.11929 11 4.5 11H5" stroke="#4338ca" strokeWidth="1.5" strokeLinecap="round" strokeLinejoin="round"/>
<path d="M5 11C5 15.4183 8.58172 19 13 19C17.4183 19 21 15.4183 21 11" stroke="#4338ca" strokeWidth="1.5" strokeLinecap="round" strokeLinejoin="round"/>
<path d="M12 4C13.1046 4 14 3.10457 14 2C14 1.44772 13.5523 1 13 1H11C10.4477 1 10 1.44772 10 2C10 3.10457 10.8954 4 12 4Z" stroke="#4338ca" strokeWidth="1.5" strokeLinecap="round" strokeLinejoin="round"/>
<path d="M12 19V23" stroke="#4338ca" strokeWidth="1.5" strokeLinecap="round" strokeLinejoin="round"/>
</svg>